<?xml version="1.0" encoding="utf-8"?>
<!-- Generator: Adobe Illustrator 19.0.0, SVG Export Plug-In . SVG Version: 6.00 Build 0)  -->
<svg version="1.1" id="Layer_1" xmlns="http://www.w3.org/2000/svg" xmlns:xlink="http://www.w3.org/1999/xlink" x="0px" y="0px"
	 viewBox="-223 25 512 512" style="enable-background:new -223 25 512 512;" xml:space="preserve">
<style type="text/css">
	.st0{fill:#FFFFFF;}
</style>
<path class="st0" d="M163,78c0,5.5-4.5,10-10,10s-10-4.5-10-10s4.5-10,10-10S163,72.5,163,78z"/>
<path class="st0" d="M33,131c-93.7,0-170,76.3-170,170c0,94.6,76.9,170,170,170c93.3,0,170-75.5,170-170C203,207.3,126.7,131,33,131
	z M2.2,447.8c0.5-2.2,0.8-4.5,0.8-6.8v-39.8c0-14.6,5.1-16.8,10.9-25.7c1.9-2.9,2.2-6.5,0.8-9.6c-1.4-3.1-4.3-5.3-7.6-5.8
	c-39.7-5.9-55.2-26.4-61.3-42.5c-8.1-21.5-3.8-48.2,10.4-65.1c2.2-2.5,4.1-7.1,2.5-11.7c-3-9.2-2.6-23.8-0.7-29.5
	c8.6,1.3,16.7,6.1,25.8,11.7c5.3,3.2,9.1,6.2,15.5,4.5c11.2-3,22.6-4.7,33.7-4.8c11.1,0.1,22.5,1.8,33.7,4.8
	c6.4,1.7,10.3-1.3,15.5-4.5c9.2-5.6,17.2-10.5,25.8-11.7c1.9,5.7,2.4,20.3-0.6,29.4c-1.6,4.7,0.4,9.2,2.5,11.8
	c14.2,16.9,18.5,43.6,10.4,65.1c-6.1,16.1-21.6,36.6-61.3,42.5c-3.4,0.5-6.3,2.7-7.6,5.8c-1.4,3.1-1.1,6.7,0.8,9.6
	c5.8,8.9,10.9,11.1,10.9,25.7v39.9c0,2.3,0.3,4.6,0.8,6.8C53.7,449.9,43.4,451,33,451S12.3,449.9,2.2,447.8z M83.1,442.4
	C83,442,83,441.5,83,441v-39.8c0-11.5-2.5-18.9-5.6-24.5c30.3-8.2,52-26.3,61.7-52c10.2-27.1,5.6-59.6-11.4-82.1
	c3.1-13.7,3-35.3-4.4-45.1c-3.3-4.4-8-6.7-13.1-6.4c-15.6,0.7-27.7,8.5-40.8,16.4c-12-3-24.1-4.7-36.1-4.8c-0.1,0-0.2,0-0.2,0
	c-12,0.1-24.1,1.8-36.1,4.8c-13-7.9-25.1-15.7-40.8-16.4c-5.1-0.2-9.8,2.1-13.1,6.4c-7.4,9.8-7.5,31.3-4.4,45.1
	c-17,22.5-21.7,54.9-11.5,82.1c9.7,25.7,31.3,43.8,61.7,52c-2.5,4.4-4.6,10-5.3,17.8c-12.4,4.3-22.4,1.5-29.2-10
	c-7.9-13.4-21.4-24.2-36.9-22.8c-5.5,0.5-9.6,5.3-9.1,10.8c0.5,5.5,5.3,9.6,10.8,9.1c7.1-0.6,14.2,6.8,17.9,13.1
	c10.7,18,28,24.4,46.1,20.6v25.7c0,0.5,0,1-0.1,1.5c-59.2-21-99.9-78-99.9-141.4c0-82.7,67.3-150,150-150s150,67.3,150,150
	C183,364.4,142.3,421.4,83.1,442.4z"/>
<path class="st0" d="M239,25h-412c-27.6,0-50,22.4-50,50v412c0,27.6,22.4,50,50,50h412c27.6,0,50-22.4,50-50V75
	C289,47.4,266.6,25,239,25z M269,487c0,16.5-13.5,30-30,30h-412c-16.5,0-30-13.5-30-30V75c0-16.5,13.5-30,30-30h412
	c16.5,0,30,13.5,30,30V487z"/>
<path class="st0" d="M-87,88h200c5.5,0,10-4.5,10-10s-4.5-10-10-10H-87c-5.5,0-10,4.5-10,10S-92.5,88-87,88z"/>
</svg>
