<?xml version="1.0" encoding="utf-8"?>
<!-- Generator: Adobe Illustrator 19.0.0, SVG Export Plug-In . SVG Version: 6.00 Build 0)  -->
<svg version="1.1" id="Layer_1" xmlns="http://www.w3.org/2000/svg" xmlns:xlink="http://www.w3.org/1999/xlink" x="0px" y="0px"
	 viewBox="-223 25 512 512" style="enable-background:new -223 25 512 512;" xml:space="preserve">
<style type="text/css">
	.st0{fill:#FFFFFF;}
</style>
<path class="st0" d="M159,517h-352c-5.5,0-10-4.5-10-10V55c0-5.5,4.5-10,10-10h20c5.5,0,10-4.5,10-10s-4.5-10-10-10h-20
	c-16.5,0-30,13.5-30,30v452c0,16.5,13.5,30,30,30h352c5.5,0,10-4.5,10-10S164.5,517,159,517z"/>
<path class="st0" d="M259,25H-93c-5.5,0-10,4.5-10,10s4.5,10,10,10h352c5.5,0,10,4.5,10,10v452c0,5.5-4.5,10-10,10h-20
	c-5.5,0-10,4.5-10,10s4.5,10,10,10h20c16.5,0,30-13.5,30-30V55C289,38.5,275.5,25,259,25z"/>
<path class="st0" d="M-99.8,201.8c29.1,0,52.8-23.7,52.8-52.8c0-29.1-23.7-52.8-52.8-52.8c-29.1,0-52.8,23.7-52.8,52.8
	S-128.8,201.8-99.8,201.8z M-99.8,116.3c18.1,0,32.8,14.7,32.8,32.8s-14.7,32.8-32.8,32.8s-32.8-14.7-32.8-32.8
	S-117.8,116.3-99.8,116.3z"/>
<path class="st0" d="M121.3,206.8c-22.1,0-43.4,7.7-60.5,21.3v-6.3c0-5.5-4.5-10-10-10H-19c-5.5,0-10,4.5-10,10v234
	c0,5.5,4.5,10,10,10h73.5c5.5,0,10-4.5,10-10V320.7c0-16.7,13.6-30.3,30.3-30.3S125,304,125,320.7v135.1c0,5.5,4.5,10,10,10h73.5
	c5.5,0,10-4.5,10-10V304C218.5,250.4,174.9,206.8,121.3,206.8z M198.5,445.8H145V320.7c0-27.7-22.5-50.3-50.3-50.3
	c-27.7,0-50.3,22.5-50.3,50.3v125.1H-9v-214h49.8v21c0,4.3,2.8,8.2,6.9,9.5c4.1,1.3,8.6-0.1,11.2-3.6c14.6-20,37.9-31.9,62.4-31.9
	c42.6,0,77.3,34.7,77.3,77.3V445.8z"/>
<path class="st0" d="M-136.5,211.8c-5.5,0-10,4.5-10,10v234c0,5.5,4.5,10,10,10H-63c5.5,0,10-4.5,10-10v-234c0-5.5-4.5-10-10-10
	H-136.5z M-73,445.8h-53.5v-214H-73V445.8z"/>
<path class="st0" d="M-133,45c5.5,0,10-4.5,10-10s-4.5-10-10-10h0c-5.5,0-10,4.5-10,10S-138.5,45-133,45z"/>
<path class="st0" d="M199,517L199,517c-5.5,0-10,4.5-10,10s4.5,10,10,10s10-4.5,10-10S204.5,517,199,517z"/>
</svg>
